<svg width="277" height="166" viewBox="0 0 277 166" fill="none" xmlns="http://www.w3.org/2000/svg">
<path d="M101.733 84.044H105.873V87.86C105.873 88.244 105.945 88.508 106.089 88.652C106.233 88.772 106.509 88.832 106.917 88.832H107.781C108.165 88.832 108.429 88.772 108.573 88.652C108.717 88.508 108.789 88.244 108.789 87.86V69.284H112.965V88.436C112.965 90.812 111.657 92 109.041 92H105.657C103.041 92 101.733 90.812 101.733 88.436V84.044ZM120.457 69.284H124.849C127.465 69.284 128.773 70.472 128.773 72.848V88.436C128.773 90.812 127.465 92 124.849 92H120.457C117.841 92 116.533 90.812 116.533 88.436V72.848C116.533 70.472 117.841 69.284 120.457 69.284ZM124.633 87.86V73.424C124.633 73.04 124.561 72.788 124.417 72.668C124.273 72.524 124.009 72.452 123.625 72.452H121.717C121.309 72.452 121.033 72.524 120.889 72.668C120.745 72.788 120.673 73.04 120.673 73.424V87.86C120.673 88.244 120.745 88.508 120.889 88.652C121.033 88.772 121.309 88.832 121.717 88.832H123.625C124.009 88.832 124.273 88.772 124.417 88.652C124.561 88.508 124.633 88.244 124.633 87.86ZM140.931 78.032V73.28C140.931 72.896 140.859 72.644 140.715 72.524C140.571 72.38 140.295 72.308 139.887 72.308H136.611V79.004H139.887C140.295 79.004 140.571 78.944 140.715 78.824C140.859 78.68 140.931 78.416 140.931 78.032ZM140.931 88.004V83C140.931 82.616 140.859 82.364 140.715 82.244C140.571 82.1 140.295 82.028 139.887 82.028H136.611V88.976H139.887C140.295 88.976 140.571 88.916 140.715 88.796C140.859 88.652 140.931 88.388 140.931 88.004ZM132.471 69.284H141.111C143.727 69.284 145.035 70.472 145.035 72.848V77.744C145.035 79.256 144.531 80.18 143.523 80.516C144.531 80.852 145.035 81.716 145.035 83.108V88.436C145.035 90.812 143.727 92 141.111 92H132.471V69.284ZM154.847 69.284H163.199C165.815 69.284 167.123 70.472 167.123 72.848V80.084C167.123 82.46 165.815 83.648 163.199 83.648H158.987V92H154.847V69.284ZM162.983 79.508V73.424C162.983 73.04 162.911 72.788 162.767 72.668C162.623 72.524 162.359 72.452 161.975 72.452H158.987V80.48H161.975C162.359 80.48 162.623 80.42 162.767 80.3C162.911 80.156 162.983 79.892 162.983 79.508ZM173.928 69.284H178.32C180.936 69.284 182.244 70.472 182.244 72.848V88.436C182.244 90.812 180.936 92 178.32 92H173.928C171.312 92 170.004 90.812 170.004 88.436V72.848C170.004 70.472 171.312 69.284 173.928 69.284ZM178.104 87.86V73.424C178.104 73.04 178.032 72.788 177.888 72.668C177.744 72.524 177.48 72.452 177.096 72.452H175.188C174.78 72.452 174.504 72.524 174.36 72.668C174.216 72.788 174.144 73.04 174.144 73.424V87.86C174.144 88.244 174.216 88.508 174.36 88.652C174.504 88.772 174.78 88.832 175.188 88.832H177.096C177.48 88.832 177.744 88.772 177.888 88.652C178.032 88.508 178.104 88.244 178.104 87.86ZM190.082 83.144V92H185.942V69.284H194.294C196.91 69.284 198.218 70.472 198.218 72.848V79.58C198.218 81.548 197.342 82.7 195.59 83.036L199.37 92H194.906L191.45 83.144H190.082ZM190.082 72.452V80.084H193.07C193.454 80.084 193.718 80.024 193.862 79.904C194.006 79.76 194.078 79.496 194.078 79.112V73.424C194.078 73.04 194.006 72.788 193.862 72.668C193.718 72.524 193.454 72.452 193.07 72.452H190.082ZM212.319 69.284V72.452H208.323V92H204.183V72.452H200.223V69.284H212.319ZM223.9 92L223.036 87.284H218.068L217.276 92H213.136L217.708 69.284H223.288L228.076 92H223.9ZM218.608 84.152H222.46L220.48 73.28L218.608 84.152ZM234.58 88.832H240.628V92H230.44V69.284H234.58V88.832Z" fill="black"/>
<path fill-rule="evenodd" clip-rule="evenodd" d="M71.913 40.2504C67.924 43.3134 66.985 48.4894 69.675 52.5944C71.896 55.9854 75.04 57.0724 79.256 55.9084C88.244 53.4264 86.131 38.9104 76.795 39.0004C74.983 39.0174 72.786 39.5804 71.913 40.2504ZM62.635 62.4274C55.883 65.2034 54.932 66.1094 49.221 75.2124C48.275 76.7214 47.085 77.9584 46.579 77.9624C46.072 77.9654 44.872 78.6794 43.912 79.5484C42.563 80.7694 41.708 80.8824 40.149 80.0484C39.039 79.4544 37.871 78.9684 37.553 78.9684C36.466 78.9684 30 89.8684 30 91.7014C30 92.9404 32.843 95.2134 38.816 98.7494C43.664 101.619 48.125 103.968 48.73 103.968C49.334 103.968 51.504 100.97 53.553 97.3064C57.09 90.9824 57.186 90.5774 55.448 89.3064C54.441 88.5704 53.238 87.9684 52.774 87.9684C52.309 87.9684 52.425 87.0434 53.03 85.9134C53.635 84.7824 53.958 83.3414 53.748 82.7114C53.537 82.0804 53.943 80.8684 54.648 80.0164C55.353 79.1654 57.299 76.5564 58.972 74.2184C61.886 70.1454 65.012 68.5874 64.989 71.2184C64.983 71.9064 64.308 74.6774 63.489 77.3774C61.115 85.2044 61.548 88.8274 65.591 94.9664C67.565 97.9644 69.827 101.554 70.617 102.943C71.406 104.332 73.053 107.09 74.276 109.072C75.499 111.055 78.281 115.666 80.457 119.321C84.434 125.999 86.358 127.535 89.321 126.398C93.134 124.935 92.233 122.049 83.527 107.84L74.903 93.7654L78.088 84.1174C79.839 78.8104 81.438 74.2794 81.64 74.0474C81.842 73.8164 83.019 74.5654 84.254 75.7114C86.99 78.2514 97.231 81.3474 99.994 80.4704C102.518 79.6694 102.69 75.4004 100.25 74.1214C99.287 73.6174 96.925 72.8884 95 72.5004C92.514 72.0004 89.887 70.0824 85.935 65.8824L80.371 59.9684L74.435 59.9924C70.496 60.0074 66.528 60.8264 62.635 62.4274ZM49.475 81.5434C51.656 82.9724 52.014 85.9684 50.004 85.9684C48.282 85.9684 44.722 82.2274 45.4 81.1304C46.326 79.6314 46.599 79.6594 49.475 81.5434ZM58.828 112.418C55.076 122.058 54.867 125.474 57.967 126.458C61.127 127.461 62.896 125.865 64.983 120.125C66.115 117.014 67.5314 112.573 67.9874 111.474C68.6907 109.779 68.01 109.429 66.217 106.72C64.852 104.656 63.3274 101.969 62.9874 101.974C62.6484 101.979 60.848 107.23 58.828 112.418Z" fill="black"/>
<path d="M273 83C273 92.2907 265.357 102.161 250.885 111.999C236.689 121.65 217.104 130.457 195.864 137.916C153.325 152.855 105.299 162 83 162C39.3695 162 4 126.63 4 83C4 39.3695 39.3695 4 83 4C105.299 4 153.325 13.1449 195.864 28.0842C217.104 35.543 236.689 44.3497 250.885 54.0006C265.357 63.8392 273 73.7093 273 83Z" stroke="black" stroke-width="8"/>
<path d="M272 83C272 86.8956 270.225 91.0561 266.381 95.4974C262.533 99.9434 256.836 104.4 249.601 108.769C235.138 117.504 215.242 125.471 193.831 132.218C150.95 145.73 103.137 154 83 154C43.7878 154 12 122.212 12 83C12 43.7878 43.7878 12 83 12C103.137 12 150.95 20.2699 193.831 33.7821C215.242 40.5287 235.138 48.4964 249.601 57.2307C256.836 61.6002 262.533 66.0566 266.381 70.5026C270.225 74.9439 272 79.1044 272 83Z" stroke="#40B7D3" stroke-width="8"/>
</svg>
